<?xml version="1.0" encoding="UTF-8"?>
<!DOCTYPE svg PUBLIC "-//W3C//DTD SVG 1.1//EN" "http://www.w3.org/Graphics/SVG/1.1/DTD/svg11.dtd">
<svg xmlns="http://www.w3.org/2000/svg" version="1.1" width="712px" height="357px" style="shape-rendering:geometricPrecision; text-rendering:geometricPrecision; image-rendering:optimizeQuality; fill-rule:evenodd; clip-rule:evenodd" xmlns:xlink="http://www.w3.org/1999/xlink">
<g><path style="opacity:0.133" fill="#0c0d0c" d="M -0.5,73.5 C 0.833333,74.1667 0.833333,74.1667 -0.5,73.5 Z"/></g>
<g><path style="opacity:0.133" fill="#0c0d0c" d="M -0.5,77.5 C 0.833333,78.1667 0.833333,78.1667 -0.5,77.5 Z"/></g>
<g><path style="opacity:0.133" fill="#0c0d0c" d="M -0.5,79.5 C 0.833333,80.1667 0.833333,80.1667 -0.5,79.5 Z"/></g>
<g><path style="opacity:0.133" fill="#0c0d0c" d="M -0.5,81.5 C 0.833333,82.1667 0.833333,82.1667 -0.5,81.5 Z"/></g>
<g><path style="opacity:0.133" fill="#0c0d0c" d="M 1.5,81.5 C 2.83333,82.1667 2.83333,82.1667 1.5,81.5 Z"/></g>
<g><path style="opacity:0.133" fill="#0f100f" d="M 49.5,81.5 C 50.8333,82.1667 50.8333,82.1667 49.5,81.5 Z"/></g>
<g><path style="opacity:0.133" fill="#0c0d0c" d="M -0.5,83.5 C 0.833333,84.1667 0.833333,84.1667 -0.5,83.5 Z"/></g>
<g><path style="opacity:0.133" fill="#0c0d0c" d="M -0.5,85.5 C 0.833333,86.1667 0.833333,86.1667 -0.5,85.5 Z"/></g>
<g><path style="opacity:0.133" fill="#0c0d0c" d="M 1.5,85.5 C 2.83333,86.1667 2.83333,86.1667 1.5,85.5 Z"/></g>
<g><path style="opacity:0.133" fill="#0c0d0c" d="M 3.5,85.5 C 4.83333,86.1667 4.83333,86.1667 3.5,85.5 Z"/></g>
<g><path style="opacity:0.133" fill="#0f100f" d="M 49.5,85.5 C 50.8333,86.1667 50.8333,86.1667 49.5,85.5 Z"/></g>
<g><path style="opacity:0.133" fill="#0f100f" d="M 51.5,85.5 C 52.8333,86.1667 52.8333,86.1667 51.5,85.5 Z"/></g>
<g><path style="opacity:0.133" fill="#0c0d0c" d="M -0.5,87.5 C 0.833333,88.1667 0.833333,88.1667 -0.5,87.5 Z"/></g>
<g><path style="opacity:0.133" fill="#0c0d0c" d="M -0.5,90.5 C -0.5,90.1667 -0.5,89.8333 -0.5,89.5C 3.5,89.8333 3.5,90.1667 -0.5,90.5 Z"/></g>
<g><path style="opacity:0.133" fill="#0c0d0c" d="M 3.5,89.5 C 4.83333,90.1667 4.83333,90.1667 3.5,89.5 Z"/></g>
<g><path style="opacity:0.133" fill="#0f100f" d="M 49.5,89.5 C 50.8333,90.1667 50.8333,90.1667 49.5,89.5 Z"/></g>
<g><path style="opacity:0.133" fill="#0f100f" d="M 51.5,89.5 C 52.8333,90.1667 52.8333,90.1667 51.5,89.5 Z"/></g>
<g><path style="opacity:0.133" fill="#0c0d0c" d="M -0.5,91.5 C 0.833333,92.1667 0.833333,92.1667 -0.5,91.5 Z"/></g>
<g><path style="opacity:0.133" fill="#0c0d0c" d="M 1.5,91.5 C 2.83333,92.1667 2.83333,92.1667 1.5,91.5 Z"/></g>
<g><path style="opacity:0.133" fill="#0c0d0c" d="M 3.5,91.5 C 4.83333,92.1667 4.83333,92.1667 3.5,91.5 Z"/></g>
<g><path style="opacity:0.133" fill="#0f100f" d="M 49.5,91.5 C 50.8333,92.1667 50.8333,92.1667 49.5,91.5 Z"/></g>
<g><path style="opacity:0.133" fill="#0f100f" d="M 51.5,91.5 C 52.8333,92.1667 52.8333,92.1667 51.5,91.5 Z"/></g>
<g><path style="opacity:0.133" fill="#0c0d0c" d="M -0.5,94.5 C -0.5,94.1667 -0.5,93.8333 -0.5,93.5C 3.5,93.8333 3.5,94.1667 -0.5,94.5 Z"/></g>
<g><path style="opacity:0.133" fill="#0c0d0c" d="M 3.5,93.5 C 4.83333,94.1667 4.83333,94.1667 3.5,93.5 Z"/></g>
<g><path style="opacity:0.133" fill="#0f100f" d="M 49.5,93.5 C 50.8333,94.1667 50.8333,94.1667 49.5,93.5 Z"/></g>
<g><path style="opacity:0.133" fill="#0f100f" d="M 51.5,93.5 C 52.8333,94.1667 52.8333,94.1667 51.5,93.5 Z"/></g>
<g><path style="opacity:0.133" fill="#0f100f" d="M 53.5,93.5 C 54.8333,94.1667 54.8333,94.1667 53.5,93.5 Z"/></g>
<g><path style="opacity:0.133" fill="#0c0d0c" d="M -0.5,95.5 C 0.833333,96.1667 0.833333,96.1667 -0.5,95.5 Z"/></g>
<g><path style="opacity:0.133" fill="#0c0d0c" d="M 1.5,95.5 C 2.83333,96.1667 2.83333,96.1667 1.5,95.5 Z"/></g>
<g><path style="opacity:0.133" fill="#0c0d0c" d="M 3.5,95.5 C 4.83333,96.1667 4.83333,96.1667 3.5,95.5 Z"/></g>
<g><path style="opacity:0.133" fill="#0f100f" d="M 49.5,95.5 C 50.8333,96.1667 50.8333,96.1667 49.5,95.5 Z"/></g>
<g><path style="opacity:0.133" fill="#0f100f" d="M 51.5,95.5 C 52.8333,96.1667 52.8333,96.1667 51.5,95.5 Z"/></g>
<g><path style="opacity:0.133" fill="#0c0d0c" d="M 3.5,97.5 C 4.83333,98.1667 4.83333,98.1667 3.5,97.5 Z"/></g>
<g><path style="opacity:0.133" fill="#0c0d0c" d="M 5.5,97.5 C 6.83333,98.1667 6.83333,98.1667 5.5,97.5 Z"/></g>
<g><path style="opacity:0.133" fill="#0f100f" d="M 49.5,98.5 C 50.2506,97.4265 51.2506,97.2599 52.5,98C 51.552,98.4828 50.552,98.6495 49.5,98.5 Z"/></g>
<g><path style="opacity:0.133" fill="#0f100f" d="M 53.5,97.5 C 54.8333,98.1667 54.8333,98.1667 53.5,97.5 Z"/></g>
<g><path style="opacity:0.133" fill="#0f100f" d="M 55.5,97.5 C 56.8333,98.1667 56.8333,98.1667 55.5,97.5 Z"/></g>
<g><path style="opacity:0.133" fill="#0c0d0c" d="M 3.5,99.5 C 4.83333,100.167 4.83333,100.167 3.5,99.5 Z"/></g>
<g><path style="opacity:0.133" fill="#0f100f" d="M 49.5,99.5 C 50.8333,100.167 50.8333,100.167 49.5,99.5 Z"/></g>
<g><path style="opacity:0.133" fill="#0f100f" d="M 51.5,99.5 C 52.8333,100.167 52.8333,100.167 51.5,99.5 Z"/></g>
<g><path style="opacity:0.133" fill="#0f100f" d="M 53.5,99.5 C 54.8333,100.167 54.8333,100.167 53.5,99.5 Z"/></g>
<g><path style="opacity:0.133" fill="#0c0d0c" d="M 5.5,101.5 C 6.83333,102.167 6.83333,102.167 5.5,101.5 Z"/></g>
<g><path style="opacity:0.133" fill="#0c0d0c" d="M 7.5,101.5 C 8.83333,102.167 8.83333,102.167 7.5,101.5 Z"/></g>
<g><path style="opacity:0.133" fill="#0f100f" d="M 55.5,101.5 C 56.8333,102.167 56.8333,102.167 55.5,101.5 Z"/></g>
<g><path style="opacity:0.133" fill="#0c0d0c" d="M 3.5,103.5 C 4.83333,104.167 4.83333,104.167 3.5,103.5 Z"/></g>
<g><path style="opacity:0.133" fill="#0c0d0c" d="M 5.5,103.5 C 6.83333,104.167 6.83333,104.167 5.5,103.5 Z"/></g>
<g><path style="opacity:0.133" fill="#0f100f" d="M 51.5,103.5 C 52.8333,104.167 52.8333,104.167 51.5,103.5 Z"/></g>
<g><path style="opacity:0.133" fill="#0f100f" d="M 53.5,103.5 C 54.8333,104.167 54.8333,104.167 53.5,103.5 Z"/></g>
<g><path style="opacity:0.133" fill="#0c0d0c" d="M 7.5,105.5 C 8.83333,106.167 8.83333,106.167 7.5,105.5 Z"/></g>
<g><path style="opacity:0.133" fill="#0f100f" d="M 55.5,105.5 C 56.8333,106.167 56.8333,106.167 55.5,105.5 Z"/></g>
<g><path style="opacity:0.133" fill="#0f100f" d="M 57.5,105.5 C 58.8333,106.167 58.8333,106.167 57.5,105.5 Z"/></g>
<g><path style="opacity:0.133" fill="#0c0d0c" d="M 7.5,107.5 C 8.83333,108.167 8.83333,108.167 7.5,107.5 Z"/></g>
<g><path style="opacity:0.133" fill="#0f100f" d="M 55.5,107.5 C 56.8333,108.167 56.8333,108.167 55.5,107.5 Z"/></g>
<g><path style="opacity:0.133" fill="#0c0d0c" d="M 7.5,109.5 C 8.83333,110.167 8.83333,110.167 7.5,109.5 Z"/></g>
<g><path style="opacity:0.133" fill="#0c0d0c" d="M 9.5,109.5 C 10.8333,110.167 10.8333,110.167 9.5,109.5 Z"/></g>
<g><path style="opacity:0.133" fill="#0f100f" d="M 57.5,109.5 C 58.8333,110.167 58.8333,110.167 57.5,109.5 Z"/></g>
<g><path style="opacity:0.133" fill="#0f100f" d="M 59.5,109.5 C 60.8333,110.167 60.8333,110.167 59.5,109.5 Z"/></g>
<g><path style="opacity:0.133" fill="#2f302f" d="M 645.5,111.5 C 646.601,110.402 647.934,110.235 649.5,111C 648.207,111.49 646.873,111.657 645.5,111.5 Z"/></g>
<g><path style="opacity:0.133" fill="#0c0d0c" d="M 7.5,111.5 C 8.83333,112.167 8.83333,112.167 7.5,111.5 Z"/></g>
<g><path style="opacity:0.133" fill="#0f100f" d="M 55.5,111.5 C 56.8333,112.167 56.8333,112.167 55.5,111.5 Z"/></g>
<g><path style="opacity:0.133" fill="#0c0d0c" d="M 9.5,113.5 C 10.8333,114.167 10.8333,114.167 9.5,113.5 Z"/></g>
<g><path style="opacity:0.133" fill="#0c0d0c" d="M 11.5,113.5 C 12.8333,114.167 12.8333,114.167 11.5,113.5 Z"/></g>
<g><path style="opacity:0.133" fill="#0f100f" d="M 59.5,113.5 C 60.8333,114.167 60.8333,114.167 59.5,113.5 Z"/></g>
<g><path style="opacity:0.133" fill="#0c0d0c" d="M 7.5,115.5 C 8.83333,116.167 8.83333,116.167 7.5,115.5 Z"/></g>
<g><path style="opacity:0.133" fill="#0c0d0c" d="M 9.5,115.5 C 10.8333,116.167 10.8333,116.167 9.5,115.5 Z"/></g>
<g><path style="opacity:0.133" fill="#0f100f" d="M 57.5,115.5 C 58.8333,116.167 58.8333,116.167 57.5,115.5 Z"/></g>
<g><path style="opacity:0.133" fill="#0f100f" d="M 59.5,115.5 C 60.8333,116.167 60.8333,116.167 59.5,115.5 Z"/></g>
<g><path style="opacity:0.133" fill="#0c0d0c" d="M 11.5,117.5 C 12.8333,118.167 12.8333,118.167 11.5,117.5 Z"/></g>
<g><path style="opacity:0.133" fill="#0f100f" d="M 59.5,117.5 C 60.8333,118.167 60.8333,118.167 59.5,117.5 Z"/></g>
<g><path style="opacity:0.133" fill="#0c0d0c" d="M 9.5,119.5 C 10.8333,120.167 10.8333,120.167 9.5,119.5 Z"/></g>
<g><path style="opacity:0.133" fill="#0c0d0c" d="M 11.5,119.5 C 12.8333,120.167 12.8333,120.167 11.5,119.5 Z"/></g>
<g><path style="opacity:0.133" fill="#0f100f" d="M 59.5,119.5 C 60.8333,120.167 60.8333,120.167 59.5,119.5 Z"/></g>
<g><path style="opacity:1" fill="#a9985f" d="M 146.5,118.5 C 147.5,118.5 148.5,118.5 149.5,118.5C 149.426,122.541 148.093,123.208 145.5,120.5C 145.863,119.817 146.196,119.15 146.5,118.5 Z"/></g>
<g><path style="opacity:1" fill="#b3a468" d="M 92.5,117.5 C 96.0952,118.905 96.2619,120.572 93,122.5C 92.1667,121.667 91.3333,120.833 90.5,120C 91.3805,119.292 92.0472,118.458 92.5,117.5 Z"/></g>
<g><path style="opacity:0.133" fill="#0c0d0c" d="M 11.5,121.5 C 12.8333,122.167 12.8333,122.167 11.5,121.5 Z"/></g>
<g><path style="opacity:0.133" fill="#0c0d0c" d="M 13.5,121.5 C 14.8333,122.167 14.8333,122.167 13.5,121.5 Z"/></g>
<g><path style="opacity:0.133" fill="#0f100f" d="M 61.5,121.5 C 62.8333,122.167 62.8333,122.167 61.5,121.5 Z"/></g>
<g><path style="opacity:0.133" fill="#0f100f" d="M 63.5,121.5 C 64.8333,122.167 64.8333,122.167 63.5,121.5 Z"/></g>
<g><path style="opacity:1" fill="#bea866" d="M 80.5,120.5 C 81.8333,120.5 83.1667,120.5 84.5,120.5C 84.5,121.833 84.5,123.167 84.5,124.5C 83.1667,124.5 81.8333,124.5 80.5,124.5C 80.5,123.167 80.5,121.833 80.5,120.5 Z"/></g>
<g><path style="opacity:0.133" fill="#0c0d0c" d="M 11.5,123.5 C 12.8333,124.167 12.8333,124.167 11.5,123.5 Z"/></g>
<g><path style="opacity:0.133" fill="#0f100f" d="M 59.5,123.5 C 60.8333,124.167 60.8333,124.167 59.5,123.5 Z"/></g>
<g><path style="opacity:0.133" fill="#0f100f" d="M 61.5,123.5 C 62.8333,124.167 62.8333,124.167 61.5,123.5 Z"/></g>
<g><path style="opacity:1" fill="#a8955c" d="M 158.5,121.5 C 160.252,121.418 161.252,122.251 161.5,124C 160.125,127.069 158.459,127.236 156.5,124.5C 157.193,123.482 157.859,122.482 158.5,121.5 Z"/></g>
<g><path style="opacity:1" fill="#a9965c" d="M 99.5,123.5 C 102.084,124.048 103.084,125.715 102.5,128.5C 97.5162,128.856 96.5162,127.189 99.5,123.5 Z"/></g>
<g><path style="opacity:1" fill="#b3a062" d="M 139.5,123.5 C 141.196,123.685 142.529,124.519 143.5,126C 142.383,127.892 140.716,128.725 138.5,128.5C 138.366,126.708 138.699,125.042 139.5,123.5 Z"/></g>
<g><path style="opacity:0.133" fill="#0c0d0c" d="M 13.5,125.5 C 14.8333,126.167 14.8333,126.167 13.5,125.5 Z"/></g>
<g><path style="opacity:0.133" fill="#0c0d0c" d="M 15.5,125.5 C 16.8333,126.167 16.8333,126.167 15.5,125.5 Z"/></g>
<g><path style="opacity:0.133" fill="#0f100f" d="M 63.5,125.5 C 64.8333,126.167 64.8333,126.167 63.5,125.5 Z"/></g>
<g><path style="opacity:0.133" fill="#0c0d0c" d="M 11.5,127.5 C 12.8333,128.167 12.8333,128.167 11.5,127.5 Z"/></g>
<g><path style="opacity:0.133" fill="#0c0d0c" d="M 13.5,127.5 C 14.8333,128.167 14.8333,128.167 13.5,127.5 Z"/></g>
<g><path style="opacity:0.133" fill="#0f100f" d="M 61.5,127.5 C 62.8333,128.167 62.8333,128.167 61.5,127.5 Z"/></g>
<g><path style="opacity:0.133" fill="#0f100f" d="M 63.5,127.5 C 64.8333,128.167 64.8333,128.167 63.5,127.5 Z"/></g>
<g><path style="opacity:1" fill="#cebb74" d="M 91.5,127.5 C 91.5,129.833 91.5,132.167 91.5,134.5C 86.6724,134.615 85.3391,132.448 87.5,128C 88.7932,127.51 90.1266,127.343 91.5,127.5 Z"/></g>
<g><path style="opacity:0.133" fill="#0c0d0c" d="M 15.5,129.5 C 16.8333,130.167 16.8333,130.167 15.5,129.5 Z"/></g>
<g><path style="opacity:0.133" fill="#0f100f" d="M 63.5,129.5 C 64.8333,130.167 64.8333,130.167 63.5,129.5 Z"/></g>
<g><path style="opacity:0.133" fill="#0f100f" d="M 65.5,129.5 C 66.8333,130.167 66.8333,130.167 65.5,129.5 Z"/></g>
<g><path style="opacity:1" fill="#ddce83" d="M 107.5,130.5 C 108.791,130.263 109.791,130.596 110.5,131.5C 110.5,133.167 110.5,134.833 110.5,136.5C 109.791,137.404 108.791,137.737 107.5,137.5C 107.5,135.167 107.5,132.833 107.5,130.5 Z"/></g>
<g><path style="opacity:1" fill="#a18c55" d="M 130.5,130.5 C 133.22,129.158 134.886,130.158 135.5,133.5C 134.886,136.842 133.22,137.842 130.5,136.5C 131.693,136.03 132.36,135.03 132.5,133.5C 132.36,131.97 131.693,130.97 130.5,130.5 Z"/></g>
<g><path style="opacity:0.133" fill="#0c0d0c" d="M 13.5,131.5 C 14.8333,132.167 14.8333,132.167 13.5,131.5 Z"/></g>
<g><path style="opacity:0.133" fill="#0c0d0c" d="M 15.5,131.5 C 16.8333,132.167 16.8333,132.167 15.5,131.5 Z"/></g>
<g><path style="opacity:0.133" fill="#0f100f" d="M 63.5,131.5 C 64.8333,132.167 64.8333,132.167 63.5,131.5 Z"/></g>
<g><path style="opacity:1" fill="#7a5f34" d="M 91.5,127.5 C 92.9468,128.134 93.6134,129.301 93.5,131C 93.6134,132.699 92.9468,133.866 91.5,134.5C 91.5,132.167 91.5,129.833 91.5,127.5 Z"/></g>
<g><path style="opacity:1" fill="#eee292" d="M 130.5,130.5 C 131.693,130.97 132.36,131.97 132.5,133.5C 132.36,135.03 131.693,136.03 130.5,136.5C 130.5,134.5 130.5,132.5 130.5,130.5 Z"/></g>
<g><path style="opacity:1" fill="#bca666" d="M 149.5,127.5 C 152.183,127.663 153.85,128.996 154.5,131.5C 152.43,136.586 150.096,136.753 147.5,132C 147.519,130.167 148.185,128.667 149.5,127.5 Z"/></g>
<g><path style="opacity:1" fill="#917642" d="M 107.5,130.5 C 107.5,132.833 107.5,135.167 107.5,137.5C 103.5,135.167 103.5,132.833 107.5,130.5 Z"/></g>
<g><path style="opacity:1" fill="#90713d" d="M 110.5,131.5 C 113.167,133.167 113.167,134.833 110.5,136.5C 110.5,134.833 110.5,133.167 110.5,131.5 Z"/></g>
<g><path style="opacity:0.133" fill="#0c0d0c" d="M 15.5,133.5 C 16.8333,134.167 16.8333,134.167 15.5,133.5 Z"/></g>
<g><path style="opacity:0.133" fill="#0c0d0c" d="M 17.5,133.5 C 18.8333,134.167 18.8333,134.167 17.5,133.5 Z"/></g>
<g><path style="opacity:0.133" fill="#0f100f" d="M 65.5,133.5 C 66.8333,134.167 66.8333,134.167 65.5,133.5 Z"/></g>
<g><path style="opacity:0.133" fill="#0f100f" d="M 67.5,133.5 C 68.8333,134.167 68.8333,134.167 67.5,133.5 Z"/></g>
<g><path style="opacity:1" fill="#a08c56" d="M 76.5,132.5 C 77.8333,132.5 79.1667,132.5 80.5,132.5C 80.7778,134.346 80.1112,135.68 78.5,136.5C 76.8888,135.68 76.2222,134.346 76.5,132.5 Z"/></g>
<g><path style="opacity:1" fill="#a78b50" d="M 130.5,130.5 C 130.5,132.5 130.5,134.5 130.5,136.5C 126.9,134.308 126.9,132.308 130.5,130.5 Z"/></g>
<g><path style="opacity:1" fill="#b29c5f" d="M 160.5,132.5 C 162.912,132.694 163.912,134.027 163.5,136.5C 160.014,136.705 159.014,135.371 160.5,132.5 Z"/></g>
<g><path style="opacity:0.133" fill="#0c0d0c" d="M 15.5,135.5 C 16.8333,136.167 16.8333,136.167 15.5,135.5 Z"/></g>
<g><path style="opacity:0.133" fill="#0f100f" d="M 63.5,135.5 C 64.8333,136.167 64.8333,136.167 63.5,135.5 Z"/></g>
<g><path style="opacity:0.133" fill="#0f100f" d="M 65.5,135.5 C 66.8333,136.167 66.8333,136.167 65.5,135.5 Z"/></g>
<g><path style="opacity:1" fill="#9c814b" d="M 523.5,134.5 C 529.492,134.995 531.159,137.829 528.5,143C 520.73,143.621 519.063,140.788 523.5,134.5 Z"/></g>
<g><path style="opacity:0.133" fill="#0c0d0c" d="M 17.5,137.5 C 18.8333,138.167 18.8333,138.167 17.5,137.5 Z"/></g>
<g><path style="opacity:0.133" fill="#0c0d0c" d="M 19.5,137.5 C 20.8333,138.167 20.8333,138.167 19.5,137.5 Z"/></g>
<g><path style="opacity:0.133" fill="#0f100f" d="M 67.5,137.5 C 68.8333,138.167 68.8333,138.167 67.5,137.5 Z"/></g>
<g><path style="opacity:1" fill="#dfd287" d="M 142.5,136.5 C 142.5,139.5 142.5,142.5 142.5,145.5C 141.5,146.833 140.5,146.833 139.5,145.5C 139.5,142.5 139.5,139.5 139.5,136.5C 140.5,135.167 141.5,135.167 142.5,136.5 Z"/></g>
<g><path style="opacity:1" fill="#ad9255" d="M 142.5,136.5 C 147.833,139.5 147.833,142.5 142.5,145.5C 142.5,142.5 142.5,139.5 142.5,136.5 Z"/></g>
<g><path style="opacity:1" fill="#d4cd88" d="M 390.5,151.5 C 390.92,148.115 391.253,144.948 391.5,142C 390.906,141.536 390.239,141.369 389.5,141.5C 396.941,133.605 405.941,131.438 416.5,135C 419.503,136.166 422.17,137.833 424.5,140C 422.946,141.892 421.112,143.392 419,144.5C 406.962,137.302 397.462,139.635 390.5,151.5 Z"/></g>
<g><path style="opacity:1" fill="#a28348" d="M 139.5,136.5 C 139.5,139.5 139.5,142.5 139.5,145.5C 135.5,142.5 135.5,139.5 139.5,136.5 Z"/></g>
<g><path style="opacity:0.133" fill="#0c0d0c" d="M 15.5,139.5 C 16.8333,140.167 16.8333,140.167 15.5,139.5 Z"/></g>
<g><path style="opacity:0.133" fill="#0c0d0c" d="M 17.5,139.5 C 18.8333,140.167 18.8333,140.167 17.5,139.5 Z"/></g>
<g><path style="opacity:0.133" fill="#0f100f" d="M 67.5,139.5 C 68.8333,140.167 68.8333,140.167 67.5,139.5 Z"/></g>
<g><path style="opacity:1" fill="#af9c5f" d="M 84.5,138.5 C 86.2132,139.635 86.8799,141.302 86.5,143.5C 81.3624,142.936 80.6957,141.27 84.5,138.5 Z"/></g>
<g><path style="opacity:1" fill="#af9457" d="M 100.5,136.5 C 104.159,137.818 104.992,140.152 103,143.5C 100.716,145.984 98.2162,146.151 95.5,144C 93.8756,140.794 94.5422,138.128 97.5,136C 98.7494,135.26 99.7494,135.427 100.5,136.5 Z"/></g>
<g><path style="opacity:1" fill="#ede091" d="M 100.5,136.5 C 100.813,139.247 100.48,141.914 99.5,144.5C 99.1667,143.167 98.8333,141.833 98.5,140.5C 98.5854,138.667 99.2521,137.334 100.5,136.5 Z"/></g>
<g><path style="opacity:1" fill="#dacc82" d="M 121.5,138.5 C 122.265,141.096 122.599,143.763 122.5,146.5C 121.335,148.109 120.001,148.443 118.5,147.5C 118.5,144.5 118.5,141.5 118.5,138.5C 119.5,137.167 120.5,137.167 121.5,138.5 Z"/></g>
<g><path style="opacity:1" fill="#ad8e4f" d="M 118.5,138.5 C 118.5,141.5 118.5,144.5 118.5,147.5C 114.5,144.5 114.5,141.5 118.5,138.5 Z"/></g>
<g><path style="opacity:1" fill="#ae9b60" d="M 154.5,139.5 C 159.069,140.668 159.402,142.335 155.5,144.5C 152.191,143.247 151.858,141.58 154.5,139.5 Z"/></g>
<g><path style="opacity:0.133" fill="#0c0d0c" d="M 19.5,141.5 C 20.8333,142.167 20.8333,142.167 19.5,141.5 Z"/></g>
<g><path style="opacity:0.133" fill="#0f100f" d="M 67.5,141.5 C 68.8333,142.167 68.8333,142.167 67.5,141.5 Z"/></g>
<g><path style="opacity:0.133" fill="#0f100f" d="M 69.5,141.5 C 70.8333,142.167 70.8333,142.167 69.5,141.5 Z"/></g>
<g><path style="opacity:1" fill="#8a602b" d="M 204.5,133.5 C 212.014,133.168 218.347,135.668 223.5,141C 221.759,142.62 219.925,144.12 218,145.5C 211.876,139.819 205.042,138.986 197.5,143C 188.167,153 188.167,163 197.5,173C 205.613,177.213 212.779,176.046 219,169.5C 220.925,170.88 222.759,172.38 224.5,174C 212.061,185.084 199.895,184.584 188,172.5C 180.291,158.719 182.458,146.886 194.5,137C 197.85,135.514 201.184,134.347 204.5,133.5 Z"/></g>
<g><path style="opacity:1" fill="#dfd78f" d="M 389.5,141.5 C 390.239,141.369 390.906,141.536 391.5,142C 391.253,144.948 390.92,148.115 390.5,151.5C 388.486,168.15 395.819,176.15 412.5,175.5C 412.93,177.38 412.93,179.38 412.5,181.5C 400.674,183.613 391.508,179.613 385,169.5C 380.792,159.11 382.292,149.777 389.5,141.5 Z"/></g>
<g><path style="opacity:1" fill="#a68649" d="M 121.5,138.5 C 123.714,139.392 124.714,141.058 124.5,143.5C 124.36,145.03 123.693,146.03 122.5,146.5C 122.599,143.763 122.265,141.096 121.5,138.5 Z"/></g>
<g><path style="opacity:0.133" fill="#0c0d0c" d="M 17.5,143.5 C 18.8333,144.167 18.8333,144.167 17.5,143.5 Z"/></g>
<g><path style="opacity:0.133" fill="#0c0d0c" d="M 19.5,143.5 C 20.8333,144.167 20.8333,144.167 19.5,143.5 Z"/></g>
<g><path style="opacity:0.133" fill="#0f100f" d="M 67.5,143.5 C 68.8333,144.167 68.8333,144.167 67.5,143.5 Z"/></g>
<g><path style="opacity:0.133" fill="#0c0d0c" d="M 19.5,145.5 C 20.8333,146.167 20.8333,146.167 19.5,145.5 Z"/></g>
<g><path style="opacity:0.133" fill="#0c0d0c" d="M 21.5,145.5 C 22.8333,146.167 22.8333,146.167 21.5,145.5 Z"/></g>
<g><path style="opacity:0.133" fill="#0f100f" d="M 71.5,145.5 C 72.8333,146.167 72.8333,146.167 71.5,145.5 Z"/></g>
<g><path style="opacity:1" fill="#9d793f" d="M 128.5,145.5 C 133.142,144.009 135.809,145.842 136.5,151C 136.025,154.808 133.858,156.975 130,157.5C 129.005,156.934 128.172,156.267 127.5,155.5C 128.777,154.306 129.444,152.64 129.5,150.5C 129.493,148.631 129.16,146.964 128.5,145.5 Z"/></g>
<g><path style="opacity:1" fill="#b49959" d="M 107.5,145.5 C 114.832,146 116.832,149.5 113.5,156C 111.975,157.009 110.308,157.509 108.5,157.5C 107.57,153.6 107.237,149.6 107.5,145.5 Z"/></g>
<g><path style="opacity:0.133" fill="#0c0d0c" d="M 19.5,147.5 C 20.8333,148.167 20.8333,148.167 19.5,147.5 Z"/></g>
<g><path style="opacity:0.133" fill="#0f100f" d="M 69.5,147.5 C 70.8333,148.167 70.8333,148.167 69.5,147.5 Z"/></g>
<g><path style="opacity:0.133" fill="#0f100f" d="M 71.5,147.5 C 72.8333,148.167 72.8333,148.167 71.5,147.5 Z"/></g>
<g><path style="opacity:1" fill="#a68d53" d="M 91.5,146.5 C 90.6314,148.717 90.298,151.05 90.5,153.5C 86.6914,150.738 87.0248,148.404 91.5,146.5 Z"/></g>
<g><path style="opacity:1" fill="#bea663" d="M 128.5,145.5 C 129.16,146.964 129.493,148.631 129.5,150.5C 129.444,152.64 128.777,154.306 127.5,155.5C 124.143,153.199 123.643,150.199 126,146.5C 126.671,145.748 127.504,145.414 128.5,145.5 Z"/></g>
<g><path style="opacity:1" fill="#e0d084" d="M 91.5,146.5 C 92.4916,146.328 93.1583,146.662 93.5,147.5C 93.5,149.167 93.5,150.833 93.5,152.5C 92.791,153.404 91.791,153.737 90.5,153.5C 90.298,151.05 90.6314,148.717 91.5,146.5 Z"/></g>
<g><path style="opacity:1" fill="#93733e" d="M 93.5,147.5 C 96.1667,149.167 96.1667,150.833 93.5,152.5C 93.5,150.833 93.5,149.167 93.5,147.5 Z"/></g>
<g><path style="opacity:0.133" fill="#0c0d0c" d="M 21.5,149.5 C 22.8333,150.167 22.8333,150.167 21.5,149.5 Z"/></g>
<g><path style="opacity:0.133" fill="#0c0d0c" d="M 23.5,149.5 C 24.8333,150.167 24.8333,150.167 23.5,149.5 Z"/></g>
<g><path style="opacity:0.133" fill="#0f100f" d="M 71.5,149.5 C 72.8333,150.167 72.8333,150.167 71.5,149.5 Z"/></g>
<g><path style="opacity:1" fill="#5b5138" d="M 304.5,150.5 C 301.918,150.025 299.918,150.692 298.5,152.5C 297.596,151.791 297.263,150.791 297.5,149.5C 300.059,149.198 302.393,149.532 304.5,150.5 Z"/></g>
<g><path style="opacity:1" fill="#615a3f" d="M 327.5,152.5 C 326.012,150.155 324.012,149.821 321.5,151.5C 323.279,149.656 325.612,148.99 328.5,149.5C 328.737,150.791 328.404,151.791 327.5,152.5 Z"/></g>
<g><path style="opacity:1" fill="#c6b775" d="M 445.5,148.5 C 451.679,148.5 456.179,151.167 459,156.5C 459.5,164.493 459.666,172.493 459.5,180.5C 457.5,180.5 455.5,180.5 453.5,180.5C 453.649,179.448 453.483,178.448 453,177.5C 448.865,181.191 444.031,182.358 438.5,181C 431.306,176.16 430.639,170.493 436.5,164C 441.953,161.882 447.62,161.048 453.5,161.5C 452.399,155.275 448.732,153.108 442.5,155C 440.049,157.84 437.549,158.006 435,155.5C 434.251,154.365 434.417,153.365 435.5,152.5C 438.722,150.545 442.056,149.212 445.5,148.5 Z M 444.5,166.5 C 447.5,166.5 450.5,166.5 453.5,166.5C 452.763,174.867 448.43,177.701 440.5,175C 438.485,170.539 439.819,167.706 444.5,166.5 Z"/></g>
<g><path style="opacity:1" fill="#956f36" d="M 107.5,145.5 C 107.237,149.6 107.57,153.6 108.5,157.5C 103.019,155.875 101.519,152.541 104,147.5C 104.816,146.177 105.983,145.511 107.5,145.5 Z"/></g>
<g><path style="opacity:1" fill="#baa464" d="M 146.5,146.5 C 150.487,146.652 151.987,148.652 151,152.5C 147.444,155.475 145.277,154.642 144.5,150C 144.862,148.566 145.528,147.399 146.5,146.5 Z"/></g>
<g><path style="opacity:1" fill="#9a7941" d="M 251.5,150.5 C 253.167,150.5 254.833,150.5 256.5,150.5C 256.5,160.5 256.5,170.5 256.5,180.5C 254.5,180.5 252.5,180.5 250.5,180.5C 250.557,176.867 249.557,176.7 247.5,180C 238.467,183.399 232.633,180.566 230,171.5C 229.333,164.5 229.333,157.5 230,150.5C 231.726,149.424 233.559,149.257 235.5,150C 236.316,157.421 236.816,164.921 237,172.5C 242.135,176.957 246.468,176.29 250,170.5C 250.172,163.654 250.672,156.987 251.5,150.5 Z"/></g>
<g><path style="opacity:1" fill="#c5b776" d="M 356.5,153.5 C 355.244,153.461 354.244,153.961 353.5,155C 353.833,156 354.167,157 354.5,158C 353.915,159.302 353.249,160.469 352.5,161.5C 351.399,155.275 347.732,153.108 341.5,155C 338.197,158.664 335.53,158.331 333.5,154C 336.722,150.561 340.722,149.061 345.5,149.5C 349.97,148.913 353.637,150.246 356.5,153.5 Z"/></g>
<g><path style="opacity:1" fill="#c0a967" d="M 491.5,153.5 C 493.25,154.659 494.25,156.326 494.5,158.5C 493.698,165.804 493.365,173.138 493.5,180.5C 491.5,180.5 489.5,180.5 487.5,180.5C 487.856,172.762 487.356,165.095 486,157.5C 483.503,155.522 480.669,155.022 477.5,156C 476.299,156.903 475.465,158.069 475,159.5C 473.661,166.426 473.161,173.426 473.5,180.5C 471.5,180.5 469.5,180.5 467.5,180.5C 467.5,170.167 467.5,159.833 467.5,149.5C 469.5,149.5 471.5,149.5 473.5,149.5C 473.351,150.552 473.517,151.552 474,152.5C 479.025,148.595 484.191,148.095 489.5,151C 490.381,151.708 491.047,152.542 491.5,153.5 Z"/></g>
<g><path style="opacity:1" fill="#8c7547" d="M 528.5,150.5 C 526.833,150.5 525.167,150.5 523.5,150.5C 523.5,160.5 523.5,170.5 523.5,180.5C 522.506,170.347 522.172,160.014 522.5,149.5C 524.735,149.205 526.735,149.539 528.5,150.5 Z"/></g>
<g><path style="opacity:1" fill="#b69552" d="M 528.5,150.5 C 528.5,160.5 528.5,170.5 528.5,180.5C 526.833,180.5 525.167,180.5 523.5,180.5C 523.5,170.5 523.5,160.5 523.5,150.5C 525.167,150.5 526.833,150.5 528.5,150.5 Z"/></g>
<g><path style="opacity:1" fill="#8a5f2a" d="M 603.5,150.5 C 603.961,163.266 603.461,175.933 602,188.5C 592.759,198.17 582.592,199.004 571.5,191C 572.453,189.045 573.787,187.378 575.5,186C 578.777,187.957 582.444,189.457 586.5,190.5C 594.641,189.863 598.141,185.529 597,177.5C 592.929,181.143 588.429,182.143 583.5,180.5C 584.756,180.539 585.756,180.039 586.5,179C 586.402,177.715 586.402,176.549 586.5,175.5C 597.392,173.719 600.392,167.719 595.5,157.5C 595.578,156.345 595.912,155.012 596.5,153.5C 597.086,153.709 597.586,154.043 598,154.5C 598.49,153.207 598.657,151.873 598.5,150.5C 600.167,150.5 601.833,150.5 603.5,150.5 Z"/></g>
<g><path style="opacity:0.133" fill="#0c0d0c" d="M 19.5,151.5 C 20.8333,152.167 20.8333,152.167 19.5,151.5 Z"/></g>
<g><path style="opacity:0.133" fill="#0c0d0c" d="M 21.5,151.5 C 22.8333,152.167 22.8333,152.167 21.5,151.5 Z"/></g>
<g><path style="opacity:0.133" fill="#0f100f" d="M 71.5,151.5 C 72.8333,152.167 72.8333,152.167 71.5,151.5 Z"/></g>
<g><path style="opacity:1" fill="#b39758" d="M 494.5,158.5 C 494.25,156.326 493.25,154.659 491.5,153.5C 494.638,151.182 498.138,149.515 502,148.5C 505.987,148.834 509.32,150.5 512,153.5C 513.414,162.418 513.914,171.418 513.5,180.5C 511.5,180.5 509.5,180.5 507.5,180.5C 507.896,172.747 507.396,165.08 506,157.5C 501.899,154.681 498.065,155.014 494.5,158.5 Z"/></g>
<g><path style="opacity:0.133" fill="#0c0d0c" d="M 23.5,153.5 C 24.8333,154.167 24.8333,154.167 23.5,153.5 Z"/></g>
<g><path style="opacity:0.133" fill="#0f100f" d="M 73.5,153.5 C 74.8333,154.167 74.8333,154.167 73.5,153.5 Z"/></g>
<g><path style="opacity:0.133" fill="#0f100f" d="M 75.5,153.5 C 76.8333,154.167 76.8333,154.167 75.5,153.5 Z"/></g>
<g><path style="opacity:1" fill="#645434" d="M 251.5,150.5 C 253.265,149.539 255.265,149.205 257.5,149.5C 257.828,160.014 257.494,170.347 256.5,180.5C 256.5,170.5 256.5,160.5 256.5,150.5C 254.833,150.5 253.167,150.5 251.5,150.5 Z"/></g>
<g><path style="opacity:1" fill="#8e6732" d="M 603.5,150.5 C 601.833,150.5 600.167,150.5 598.5,150.5C 598.657,151.873 598.49,153.207 598,154.5C 597.586,154.043 597.086,153.709 596.5,153.5C 595.912,155.012 595.578,156.345 595.5,157.5C 590.25,154.529 585.25,154.862 580.5,158.5C 576.353,166.591 578.353,172.258 586.5,175.5C 586.402,176.549 586.402,177.715 586.5,179C 585.756,180.039 584.756,180.539 583.5,180.5C 577.692,179.531 573.859,176.198 572,170.5C 569.577,157.994 574.577,150.661 587,148.5C 590.608,149.092 593.942,150.425 597,152.5C 597.483,151.552 597.649,150.552 597.5,149.5C 599.735,149.205 601.735,149.539 603.5,150.5 Z"/></g>
<g><path style="opacity:1" fill="#bda968" d="M 304.5,150.5 C 307.672,157.327 310.672,164.327 313.5,171.5C 316.368,164.894 319.034,158.227 321.5,151.5C 324.012,149.821 326.012,150.155 327.5,152.5C 323.966,161.769 320.633,171.102 317.5,180.5C 314.552,180.777 311.719,180.444 309,179.5C 305.199,170.594 301.699,161.594 298.5,152.5C 299.918,150.692 301.918,150.025 304.5,150.5 Z"/></g>
<g><path style="opacity:1" fill="#9c773d" d="M 543.5,163.5 C 543.625,159.249 543.292,154.916 542.5,150.5C 541.167,150.5 539.833,150.5 538.5,150.5C 538.5,160.5 538.5,170.5 538.5,180.5C 537.506,170.347 537.172,160.014 537.5,149.5C 539.5,149.5 541.5,149.5 543.5,149.5C 543.343,150.873 543.51,152.207 544,153.5C 548.091,149.695 552.924,148.528 558.5,150C 560.286,150.785 561.786,151.951 563,153.5C 564.443,162.392 564.943,171.392 564.5,180.5C 562.5,180.5 560.5,180.5 558.5,180.5C 558.666,173.825 558.5,167.158 558,160.5C 555.203,155.139 551.203,154.139 546,157.5C 545.155,159.611 544.322,161.611 543.5,163.5 Z"/></g>
<g><path style="opacity:1" fill="#ad8949" d="M 543.5,163.5 C 543.5,169.167 543.5,174.833 543.5,180.5C 541.833,180.5 540.167,180.5 538.5,180.5C 538.5,170.5 538.5,160.5 538.5,150.5C 539.833,150.5 541.167,150.5 542.5,150.5C 543.292,154.916 543.625,159.249 543.5,163.5 Z"/></g>
<g><path style="opacity:0.133" fill="#0c0d0c" d="M 23.5,155.5 C 24.8333,156.167 24.8333,156.167 23.5,155.5 Z"/></g>
<g><path style="opacity:0.133" fill="#0f100f" d="M 71.5,155.5 C 72.8333,156.167 72.8333,156.167 71.5,155.5 Z"/></g>
<g><path style="opacity:0.133" fill="#0f100f" d="M 73.5,155.5 C 74.8333,156.167 74.8333,156.167 73.5,155.5 Z"/></g>
<g><path style="opacity:1" fill="#ded186" d="M 122.5,155.5 C 122.774,160.263 122.441,164.93 121.5,169.5C 119.901,169.768 118.568,169.434 117.5,168.5C 116.57,164.6 116.237,160.6 116.5,156.5C 118.328,154.885 120.328,154.552 122.5,155.5 Z"/></g>
<g><path style="opacity:1" fill="#a78d52" d="M 290.5,153.5 C 289.244,153.461 288.244,153.961 287.5,155C 287.966,156.299 287.966,157.799 287.5,159.5C 288.434,160.568 288.768,161.901 288.5,163.5C 282.158,163.334 275.825,163.5 269.5,164C 269.167,165 268.833,166 268.5,167C 269.094,167.464 269.761,167.631 270.5,167.5C 272.385,174.112 276.718,176.612 283.5,175C 285.369,173.398 287.369,172.398 289.5,172C 290.833,173 292.167,174 293.5,175C 284.155,183.819 274.989,183.652 266,174.5C 260.494,156.658 266.994,148.492 285.5,150C 287.584,150.697 289.251,151.864 290.5,153.5 Z M 287.5,159.5 C 287.5,160.5 287.5,161.5 287.5,162.5C 281.794,162.829 276.128,162.495 270.5,161.5C 273.333,154.915 278,153.081 284.5,156C 285.636,157.145 286.636,158.312 287.5,159.5 Z"/></g>
<g><path style="opacity:1" fill="#d2c783" d="M 412.5,181.5 C 412.93,179.38 412.93,177.38 412.5,175.5C 414.214,174.262 416.214,173.595 418.5,173.5C 418.5,169.5 418.5,165.5 418.5,161.5C 415.375,160.521 412.042,160.187 408.5,160.5C 408.5,158.833 408.5,157.167 408.5,155.5C 413.901,154.175 419.401,154.175 425,155.5C 425.667,162.833 425.667,170.167 425,177.5C 421.124,179.736 416.958,181.07 412.5,181.5 Z"/></g>
<g><path style="opacity:1" fill="#b99f5e" d="M 122.5,155.5 C 123.71,155.932 124.71,156.599 125.5,157.5C 125.5,160.5 125.5,163.5 125.5,166.5C 124.738,168.262 123.404,169.262 121.5,169.5C 122.441,164.93 122.774,160.263 122.5,155.5 Z"/></g>
<g><path style="opacity:1" fill="#dfd085" d="M 356.5,153.5 C 356.987,154.473 357.487,155.473 358,156.5C 358.5,164.493 358.666,172.493 358.5,180.5C 356.833,180.5 355.167,180.5 353.5,180.5C 353.931,176.426 354.264,172.926 354.5,170C 353.915,168.698 353.249,167.531 352.5,166.5C 349.695,165.681 346.695,165.181 343.5,165C 344.833,164.333 344.833,163.667 343.5,163C 346.695,162.819 349.695,162.319 352.5,161.5C 353.249,160.469 353.915,159.302 354.5,158C 354.167,157 353.833,156 353.5,155C 354.244,153.961 355.244,153.461 356.5,153.5 Z"/></g>
<g><path style="opacity:0.133" fill="#0c0d0c" d="M 23.5,157.5 C 24.8333,158.167 24.8333,158.167 23.5,157.5 Z"/></g>
<g><path style="opacity:0.133" fill="#0c0d0c" d="M 25.5,157.5 C 26.8333,158.167 26.8333,158.167 25.5,157.5 Z"/></g>
<g><path style="opacity:0.133" fill="#0c0d0c" d="M 27.5,157.5 C 28.8333,158.167 28.8333,158.167 27.5,157.5 Z"/></g>
<g><path style="opacity:0.133" fill="#0f100f" d="M 75.5,157.5 C 76.8333,158.167 76.8333,158.167 75.5,157.5 Z"/></g>
<g><path style="opacity:1" fill="#9c7b42" d="M 116.5,156.5 C 116.237,160.6 116.57,164.6 117.5,168.5C 112.722,165.927 111.722,162.26 114.5,157.5C 114.957,156.702 115.624,156.369 116.5,156.5 Z"/></g>
<g><path style="opacity:0.133" fill="#0c0d0c" d="M 23.5,159.5 C 24.8333,160.167 24.8333,160.167 23.5,159.5 Z"/></g>
<g><path style="opacity:0.133" fill="#0f100f" d="M 73.5,159.5 C 74.8333,160.167 74.8333,160.167 73.5,159.5 Z"/></g>
<g><path style="opacity:0.133" fill="#0f100f" d="M 75.5,159.5 C 76.8333,160.167 76.8333,160.167 75.5,159.5 Z"/></g>
<g><path style="opacity:1" fill="#c2ad69" d="M 97.5,166.5 C 97.5,163.833 97.5,161.167 97.5,158.5C 103.971,157.148 105.971,159.648 103.5,166C 101.544,167.612 99.5442,167.778 97.5,166.5 Z"/></g>
<g><path style="opacity:1" fill="#866838" d="M 97.5,158.5 C 97.5,161.167 97.5,163.833 97.5,166.5C 93.5,163.833 93.5,161.167 97.5,158.5 Z"/></g>
<g><path style="opacity:1" fill="#747050" d="M 408.5,155.5 C 408.5,157.167 408.5,158.833 408.5,160.5C 412.042,160.187 415.375,160.521 418.5,161.5C 414.833,161.5 411.167,161.5 407.5,161.5C 407.205,159.265 407.539,157.265 408.5,155.5 Z"/></g>
<g><path style="opacity:0.133" fill="#0c0d0c" d="M 27.5,161.5 C 28.8333,162.167 28.8333,162.167 27.5,161.5 Z"/></g>
<g><path style="opacity:0.133" fill="#0f100f" d="M 77.5,161.5 C 78.8333,162.167 78.8333,162.167 77.5,161.5 Z"/></g>
<g><path style="opacity:0.133" fill="#0f100f" d="M 79.5,161.5 C 80.8333,162.167 80.8333,162.167 79.5,161.5 Z"/></g>
<g><path style="opacity:1" fill="#856331" d="M 125.5,157.5 C 126.898,158.777 127.564,160.443 127.5,162.5C 127.66,164.355 126.993,165.688 125.5,166.5C 125.5,163.5 125.5,160.5 125.5,157.5 Z"/></g>
<g><path style="opacity:1" fill="#c2ab68" d="M 137.5,157.5 C 142.989,157.504 144.822,160.171 143,165.5C 138.626,168.543 135.793,167.543 134.5,162.5C 134.323,160.032 135.323,158.365 137.5,157.5 Z"/></g>
<g><path style="opacity:0.133" fill="#0c0d0c" d="M 25.5,163.5 C 26.8333,164.167 26.8333,164.167 25.5,163.5 Z"/></g>
<g><path style="opacity:0.133" fill="#0c0d0c" d="M 27.5,163.5 C 28.8333,164.167 28.8333,164.167 27.5,163.5 Z"/></g>
<g><path style="opacity:0.133" fill="#0f100f" d="M 75.5,163.5 C 76.8333,164.167 76.8333,164.167 75.5,163.5 Z"/></g>
<g><path style="opacity:0.133" fill="#0f100f" d="M 77.5,163.5 C 78.8333,164.167 78.8333,164.167 77.5,163.5 Z"/></g>
<g><path style="opacity:1" fill="#bfa35f" d="M 290.5,153.5 C 293.926,157.465 295.26,162.131 294.5,167.5C 286.5,167.5 278.5,167.5 270.5,167.5C 269.761,167.631 269.094,167.464 268.5,167C 268.833,166 269.167,165 269.5,164C 275.825,163.5 282.158,163.334 288.5,163.5C 288.768,161.901 288.434,160.568 287.5,159.5C 287.966,157.799 287.966,156.299 287.5,155C 288.244,153.961 289.244,153.461 290.5,153.5 Z"/></g>
<g><path style="opacity:1" fill="#beb070" d="M 352.5,161.5 C 349.695,162.319 346.695,162.819 343.5,163C 344.833,163.667 344.833,164.333 343.5,165C 346.695,165.181 349.695,165.681 352.5,166.5C 353.249,167.531 353.915,168.698 354.5,170C 354.264,172.926 353.931,176.426 353.5,180.5C 352.732,179.737 352.232,178.737 352,177.5C 347.865,181.191 343.031,182.358 337.5,181C 330.306,176.16 329.639,170.493 335.5,164C 340.965,161.881 346.631,161.048 352.5,161.5 Z M 352.5,166.5 C 351.515,175.211 347.015,177.877 339,174.5C 338.104,171.975 338.604,169.808 340.5,168C 344.395,166.734 348.395,166.234 352.5,166.5 Z"/></g>
<g><path style="opacity:0.133" fill="#0c0d0c" d="M 27.5,165.5 C 28.8333,166.167 28.8333,166.167 27.5,165.5 Z"/></g>
<g><path style="opacity:0.133" fill="#0c0d0c" d="M 29.5,165.5 C 30.8333,166.167 30.8333,166.167 29.5,165.5 Z"/></g>
<g><path style="opacity:0.133" fill="#0f100f" d="M 79.5,165.5 C 80.8333,166.167 80.8333,166.167 79.5,165.5 Z"/></g>
<g><path style="opacity:0.133" fill="#0c0d0c" d="M 27.5,167.5 C 28.8333,168.167 28.8333,168.167 27.5,167.5 Z"/></g>
<g><path style="opacity:0.133" fill="#0f100f" d="M 75.5,167.5 C 76.8333,168.167 76.8333,168.167 75.5,167.5 Z"/></g>
<g><path style="opacity:0.133" fill="#0f100f" d="M 77.5,167.5 C 78.8333,168.167 78.8333,168.167 77.5,167.5 Z"/></g>
<g><path style="opacity:0.133" fill="#0f100f" d="M 79.5,167.5 C 80.8333,168.167 80.8333,168.167 79.5,167.5 Z"/></g>
<g><path style="opacity:1" fill="#906a34" d="M 106.5,166.5 C 106.5,170.167 106.5,173.833 106.5,177.5C 107.5,177.5 108.5,177.5 109.5,177.5C 108.399,178.598 107.066,178.765 105.5,178C 100.076,173.562 100.409,169.728 106.5,166.5 Z"/></g>
<g><path style="opacity:0.133" fill="#0c0d0c" d="M 31.5,169.5 C 32.8333,170.167 32.8333,170.167 31.5,169.5 Z"/></g>
<g><path style="opacity:0.133" fill="#0f100f" d="M 79.5,169.5 C 80.8333,170.167 80.8333,170.167 79.5,169.5 Z"/></g>
<g><path style="opacity:0.133" fill="#0f100f" d="M 81.5,169.5 C 82.8333,170.167 82.8333,170.167 81.5,169.5 Z"/></g>
<g><path style="opacity:1" fill="#b79a58" d="M 109.5,177.5 C 108.5,177.5 107.5,177.5 106.5,177.5C 106.5,173.833 106.5,170.167 106.5,166.5C 110.96,165.58 113.626,167.58 114.5,172.5C 113.788,175.212 112.121,176.879 109.5,177.5 Z"/></g>
<g><path style="opacity:1" fill="#bfa460" d="M 128.5,168.5 C 129.787,169.871 130.453,171.705 130.5,174C 130.494,176.033 130.161,177.866 129.5,179.5C 124.922,178.207 123.422,175.207 125,170.5C 125.816,169.177 126.983,168.511 128.5,168.5 Z"/></g>
<g><path style="opacity:1" fill="#957039" d="M 128.5,168.5 C 133.142,167.009 135.809,168.842 136.5,174C 136.095,177.574 134.095,179.741 130.5,180.5C 129.893,180.376 129.56,180.043 129.5,179.5C 130.161,177.866 130.494,176.033 130.5,174C 130.453,171.705 129.787,169.871 128.5,168.5 Z"/></g>
<g><path style="opacity:1" fill="#d4c37b" d="M 93.5,170.5 C 93.5,172.5 93.5,174.5 93.5,176.5C 91.901,176.768 90.5676,176.434 89.5,175.5C 89.5,173.833 89.5,172.167 89.5,170.5C 90.8333,169.167 92.1667,169.167 93.5,170.5 Z"/></g>
<g><path style="opacity:0.133" fill="#0c0d0c" d="M 27.5,171.5 C 28.8333,172.167 28.8333,172.167 27.5,171.5 Z"/></g>
<g><path style="opacity:0.133" fill="#0c0d0c" d="M 29.5,171.5 C 30.8333,172.167 30.8333,172.167 29.5,171.5 Z"/></g>
<g><path style="opacity:0.133" fill="#0f100f" d="M 79.5,171.5 C 80.8333,172.167 80.8333,172.167 79.5,171.5 Z"/></g>
<g><path style="opacity:1" fill="#8a6c39" d="M 89.5,170.5 C 89.5,172.167 89.5,173.833 89.5,175.5C 86.8333,173.833 86.8333,172.167 89.5,170.5 Z"/></g>
<g><path style="opacity:1" fill="#795f34" d="M 93.5,170.5 C 95.9938,172.406 95.9938,174.406 93.5,176.5C 93.5,174.5 93.5,172.5 93.5,170.5 Z"/></g>
<g><path style="opacity:1" fill="#b7a161" d="M 147.5,169.5 C 152.594,171.872 152.761,174.539 148,177.5C 142.376,175.261 142.209,172.594 147.5,169.5 Z"/></g>
<g><path style="opacity:0.133" fill="#0c0d0c" d="M 31.5,173.5 C 32.8333,174.167 32.8333,174.167 31.5,173.5 Z"/></g>
<g><path style="opacity:0.133" fill="#0f100f" d="M 81.5,173.5 C 82.8333,174.167 82.8333,174.167 81.5,173.5 Z"/></g>
<g><path style="opacity:0.133" fill="#0f100f" d="M 83.5,173.5 C 84.8333,174.167 84.8333,174.167 83.5,173.5 Z"/></g>
<g><path style="opacity:0.133" fill="#0c0d0c" d="M 31.5,175.5 C 32.8333,176.167 32.8333,176.167 31.5,175.5 Z"/></g>
<g><path style="opacity:0.133" fill="#0f100f" d="M 79.5,175.5 C 80.8333,176.167 80.8333,176.167 79.5,175.5 Z"/></g>
<g><path style="opacity:0.133" fill="#0f100f" d="M 81.5,175.5 C 82.8333,176.167 82.8333,176.167 81.5,175.5 Z"/></g>
<g><path style="opacity:0.133" fill="#0f100f" d="M 83.5,175.5 C 84.8333,176.167 84.8333,176.167 83.5,175.5 Z"/></g>
<g><path style="opacity:0.133" fill="#0c0d0c" d="M 33.5,177.5 C 34.8333,178.167 34.8333,178.167 33.5,177.5 Z"/></g>
<g><path style="opacity:0.133" fill="#0c0d0c" d="M 35.5,177.5 C 36.8333,178.167 36.8333,178.167 35.5,177.5 Z"/></g>
<g><path style="opacity:0.133" fill="#0f100f" d="M 83.5,177.5 C 84.8333,178.167 84.8333,178.167 83.5,177.5 Z"/></g>
<g><path style="opacity:0.133" fill="#0f100f" d="M 85.5,177.5 C 86.8333,178.167 86.8333,178.167 85.5,177.5 Z"/></g>
<g><path style="opacity:1" fill="#cfbb74" d="M 97.5,178.5 C 100.191,180.94 100.858,183.94 99.5,187.5C 94.8486,186.826 93.3486,184.159 95,179.5C 95.6708,178.748 96.5041,178.414 97.5,178.5 Z"/></g>
<g><path style="opacity:1" fill="#dccd83" d="M 117.5,177.5 C 118.5,177.5 119.5,177.5 120.5,177.5C 120.5,180.5 120.5,183.5 120.5,186.5C 119.348,187.625 118.348,187.625 117.5,186.5C 116.167,183.5 116.167,180.5 117.5,177.5 Z"/></g>
<g><path style="opacity:0.133" fill="#0c0d0c" d="M 31.5,179.5 C 32.8333,180.167 32.8333,180.167 31.5,179.5 Z"/></g>
<g><path style="opacity:0.133" fill="#0c0d0c" d="M 33.5,179.5 C 34.8333,180.167 34.8333,180.167 33.5,179.5 Z"/></g>
<g><path style="opacity:1" fill="#aa9357" d="M 97.5,178.5 C 102.887,177.413 104.72,179.746 103,185.5C 102.184,186.823 101.017,187.489 99.5,187.5C 100.858,183.94 100.191,180.94 97.5,178.5 Z"/></g>
<g><path style="opacity:1" fill="#967841" d="M 120.5,177.5 C 124.5,180.5 124.5,183.5 120.5,186.5C 120.5,183.5 120.5,180.5 120.5,177.5 Z"/></g>
<g><path style="opacity:1" fill="#9c7c44" d="M 138.5,178.5 C 138.5,181.167 138.5,183.833 138.5,186.5C 134.936,183.984 134.936,181.317 138.5,178.5 Z"/></g>
<g><path style="opacity:1" fill="#e5d689" d="M 138.5,178.5 C 139.167,178.5 139.833,178.5 140.5,178.5C 142.242,181.145 142.909,184.145 142.5,187.5C 140.901,187.768 139.568,187.434 138.5,186.5C 138.5,183.833 138.5,181.167 138.5,178.5 Z"/></g>
<g><path style="opacity:1" fill="#aa9054" d="M 142.5,187.5 C 142.909,184.145 142.242,181.145 140.5,178.5C 142.085,178.015 143.585,178.681 145,180.5C 146.087,183.614 145.254,185.947 142.5,187.5 Z"/></g>
<g><path style="opacity:0.133" fill="#0c0d0c" d="M 35.5,181.5 C 36.8333,182.167 36.8333,182.167 35.5,181.5 Z"/></g>
<g><path style="opacity:0.133" fill="#0f100f" d="M 87.5,181.5 C 88.8333,182.167 88.8333,182.167 87.5,181.5 Z"/></g>
<g><path style="opacity:1" fill="#ac985e" d="M 154.5,179.5 C 156.252,179.418 157.252,180.251 157.5,182C 156.125,185.069 154.459,185.236 152.5,182.5C 153.193,181.482 153.859,180.482 154.5,179.5 Z"/></g>
<g><path style="opacity:1" fill="#a6945c" d="M 82.5,179.5 C 86.0714,179.408 87.2381,181.074 86,184.5C 84.8831,184.335 83.7164,184.002 82.5,183.5C 81.3744,182.192 81.3744,180.858 82.5,179.5 Z"/></g>
<g><path style="opacity:1" fill="#90733f" d="M 117.5,177.5 C 116.167,180.5 116.167,183.5 117.5,186.5C 113.578,184.899 112.745,182.232 115,178.5C 115.671,177.748 116.504,177.414 117.5,177.5 Z"/></g>
<g><path style="opacity:0.133" fill="#0c0d0c" d="M 33.5,183.5 C 34.8333,184.167 34.8333,184.167 33.5,183.5 Z"/></g>
<g><path style="opacity:0.133" fill="#0c0d0c" d="M 35.5,183.5 C 36.8333,184.167 36.8333,184.167 35.5,183.5 Z"/></g>
<g><path style="opacity:0.133" fill="#0c0d0c" d="M 35.5,185.5 C 36.8333,186.167 36.8333,186.167 35.5,185.5 Z"/></g>
<g><path style="opacity:0.133" fill="#0c0d0c" d="M 37.5,185.5 C 38.8333,186.167 38.8333,186.167 37.5,185.5 Z"/></g>
<g><path style="opacity:0.133" fill="#0f100f" d="M 87.5,185.5 C 88.8333,186.167 88.8333,186.167 87.5,185.5 Z"/></g>
<g><path style="opacity:1" fill="#a28e56" d="M 109.5,186.5 C 108.307,186.97 107.64,187.97 107.5,189.5C 107.64,191.03 108.307,192.03 109.5,192.5C 106.78,193.842 105.114,192.842 104.5,189.5C 105.114,186.158 106.78,185.158 109.5,186.5 Z"/></g>
<g><path style="opacity:0.133" fill="#0c0d0c" d="M 35.5,187.5 C 36.8333,188.167 36.8333,188.167 35.5,187.5 Z"/></g>
<g><path style="opacity:1" fill="#efe393" d="M 109.5,186.5 C 109.5,188.5 109.5,190.5 109.5,192.5C 108.307,192.03 107.64,191.03 107.5,189.5C 107.64,187.97 108.307,186.97 109.5,186.5 Z"/></g>
<g><path style="opacity:1" fill="#aa9459" d="M 129.5,186.5 C 132.55,185.923 134.55,187.09 135.5,190C 134.078,194.472 131.578,195.305 128,192.5C 127.252,190.16 127.752,188.16 129.5,186.5 Z"/></g>
<g><path style="opacity:1" fill="#998652" d="M 77.5,186.5 C 80.1731,186.684 80.8398,187.851 79.5,190C 75.4467,190.468 74.78,189.302 77.5,186.5 Z"/></g>
<g><path style="opacity:0.133" fill="#0c0d0c" d="M 39.5,189.5 C 40.8333,190.167 40.8333,190.167 39.5,189.5 Z"/></g>
<g><path style="opacity:1" fill="#b19a5d" d="M 91.5,195.5 C 85.3525,195.451 84.1858,192.785 88,187.5C 93.3553,188.623 94.522,191.29 91.5,195.5 Z"/></g>
<g><path style="opacity:1" fill="#aa8c4f" d="M 109.5,186.5 C 110.947,187.134 111.613,188.301 111.5,190C 111.316,191.376 110.649,192.209 109.5,192.5C 109.5,190.5 109.5,188.5 109.5,186.5 Z"/></g>
<g><path style="opacity:1" fill="#c1b06e" d="M 148.5,195.5 C 148.5,193.5 148.5,191.5 148.5,189.5C 151.154,188.316 153.154,189.149 154.5,192C 153.663,195.578 151.663,196.745 148.5,195.5 Z"/></g>
<g><path style="opacity:1" fill="#b4a264" d="M 160.5,187.5 C 162.912,187.694 163.912,189.027 163.5,191.5C 160.046,191.733 159.046,190.4 160.5,187.5 Z"/></g>
<g><path style="opacity:0.133" fill="#0c0d0c" d="M 35.5,191.5 C 36.8333,192.167 36.8333,192.167 35.5,191.5 Z"/></g>
<g><path style="opacity:0.133" fill="#0c0d0c" d="M 37.5,191.5 C 38.8333,192.167 38.8333,192.167 37.5,191.5 Z"/></g>
<g><path style="opacity:1" fill="#755930" d="M 148.5,189.5 C 148.5,191.5 148.5,193.5 148.5,195.5C 145.833,193.5 145.833,191.5 148.5,189.5 Z"/></g>
<g><path style="opacity:0.133" fill="#0c0d0c" d="M 39.5,193.5 C 40.8333,194.167 40.8333,194.167 39.5,193.5 Z"/></g>
<g><path style="opacity:0.133" fill="#0c0d0c" d="M 41.5,193.5 C 42.8333,194.167 42.8333,194.167 41.5,193.5 Z"/></g>
<g><path style="opacity:0.133" fill="#0c0d0c" d="M 39.5,195.5 C 40.8333,196.167 40.8333,196.167 39.5,195.5 Z"/></g>
<g><path style="opacity:0.133" fill="#0f100f" d="M 91.5,195.5 C 92.8333,196.167 92.8333,196.167 91.5,195.5 Z"/></g>
<g><path style="opacity:1" fill="#baa666" d="M 98.5,194.5 C 103.073,194.976 103.573,196.642 100,199.5C 97.3894,198.5 96.8894,196.833 98.5,194.5 Z"/></g>
<g><path style="opacity:0.133" fill="#0c0d0c" d="M 41.5,197.5 C 42.8333,198.167 42.8333,198.167 41.5,197.5 Z"/></g>
<g><path style="opacity:0.133" fill="#0c0d0c" d="M 43.5,197.5 C 44.8333,198.167 44.8333,198.167 43.5,197.5 Z"/></g>
<g><path style="opacity:0.133" fill="#0f100f" d="M 91.5,197.5 C 92.8333,198.167 92.8333,198.167 91.5,197.5 Z"/></g>
<g><path style="opacity:0.133" fill="#0f100f" d="M 93.5,197.5 C 94.8333,198.167 94.8333,198.167 93.5,197.5 Z"/></g>
<g><path style="opacity:0.133" fill="#0f100f" d="M 95.5,197.5 C 96.8333,198.167 96.8333,198.167 95.5,197.5 Z"/></g>
<g><path style="opacity:1" fill="#b29d60" d="M 138.5,195.5 C 143.049,195.932 143.549,197.599 140,200.5C 137.491,199.347 136.991,197.68 138.5,195.5 Z"/></g>
<g><path style="opacity:0.133" fill="#0c0d0c" d="M 39.5,199.5 C 40.8333,200.167 40.8333,200.167 39.5,199.5 Z"/></g>
<g><path style="opacity:0.133" fill="#0c0d0c" d="M 41.5,199.5 C 42.8333,200.167 42.8333,200.167 41.5,199.5 Z"/></g>
<g><path style="opacity:0.133" fill="#0f100f" d="M 91.5,199.5 C 92.8333,200.167 92.8333,200.167 91.5,199.5 Z"/></g>
<g><path style="opacity:0.133" fill="#0f100f" d="M 93.5,199.5 C 94.8333,200.167 94.8333,200.167 93.5,199.5 Z"/></g>
<g><path style="opacity:1" fill="#b4a063" d="M 157.5,197.5 C 161.684,198.44 162.184,200.107 159,202.5C 156.389,201.5 155.889,199.833 157.5,197.5 Z"/></g>
<g><path style="opacity:0.133" fill="#0c0d0c" d="M 43.5,201.5 C 44.8333,202.167 44.8333,202.167 43.5,201.5 Z"/></g>
<g><path style="opacity:1" fill="#b4a063" d="M 81.5,197.5 C 83.2132,198.635 83.8799,200.302 83.5,202.5C 82.1667,202.5 80.8333,202.5 79.5,202.5C 79.3653,200.446 80.032,198.779 81.5,197.5 Z"/></g>
<g><path style="opacity:0.133" fill="#0f100f" d="M 95.5,201.5 C 96.8333,202.167 96.8333,202.167 95.5,201.5 Z"/></g>
<g><path style="opacity:1" fill="#a28e56" d="M 90.5,201.5 C 91.8333,201.5 93.1667,201.5 94.5,201.5C 94.7778,203.346 94.1112,204.68 92.5,205.5C 90.8888,204.68 90.2222,203.346 90.5,201.5 Z"/></g>
<g><path style="opacity:1" fill="#927f4d" d="M 146.5,201.5 C 149.173,201.684 149.84,202.851 148.5,205C 144.447,205.468 143.78,204.302 146.5,201.5 Z"/></g>
<g><path style="opacity:0.133" fill="#0c0d0c" d="M 43.5,203.5 C 44.8333,204.167 44.8333,204.167 43.5,203.5 Z"/></g>
<g><path style="opacity:0.133" fill="#0f100f" d="M 95.5,203.5 C 96.8333,204.167 96.8333,204.167 95.5,203.5 Z"/></g>
<g><path style="opacity:0.133" fill="#0f100f" d="M 97.5,205.5 C 98.8333,206.167 98.8333,206.167 97.5,205.5 Z"/></g>
<g><path style="opacity:0.133" fill="#0f100f" d="M 99.5,205.5 C 100.833,206.167 100.833,206.167 99.5,205.5 Z"/></g>
<g><path style="opacity:0.133" fill="#0c0d0c" d="M 43.5,207.5 C 44.8333,208.167 44.8333,208.167 43.5,207.5 Z"/></g>
<g><path style="opacity:0.133" fill="#0f100f" d="M 95.5,207.5 C 96.8333,208.167 96.8333,208.167 95.5,207.5 Z"/></g>
<g><path style="opacity:0.133" fill="#0f100f" d="M 99.5,209.5 C 100.833,210.167 100.833,210.167 99.5,209.5 Z"/></g>
<g><path style="opacity:0.133" fill="#0f100f" d="M 99.5,211.5 C 100.833,212.167 100.833,212.167 99.5,211.5 Z"/></g>
<g><path style="opacity:0.133" fill="#0f100f" d="M 99.5,213.5 C 100.833,214.167 100.833,214.167 99.5,213.5 Z"/></g>
<g><path style="opacity:0.133" fill="#0f100f" d="M 101.5,213.5 C 102.833,214.167 102.833,214.167 101.5,213.5 Z"/></g>
<g><path style="opacity:0.133" fill="#0f100f" d="M 103.5,213.5 C 104.833,214.167 104.833,214.167 103.5,213.5 Z"/></g>
<g><path style="opacity:0.133" fill="#0f100f" d="M 99.5,215.5 C 100.833,216.167 100.833,216.167 99.5,215.5 Z"/></g>
<g><path style="opacity:0.133" fill="#0f100f" d="M 101.5,215.5 C 102.833,216.167 102.833,216.167 101.5,215.5 Z"/></g>
<g><path style="opacity:0.133" fill="#0f100f" d="M 103.5,217.5 C 104.833,218.167 104.833,218.167 103.5,217.5 Z"/></g>
<g><path style="opacity:0.133" fill="#0f100f" d="M 103.5,219.5 C 104.833,220.167 104.833,220.167 103.5,219.5 Z"/></g>
<g><path style="opacity:0.133" fill="#0f100f" d="M 105.5,221.5 C 106.833,222.167 106.833,222.167 105.5,221.5 Z"/></g>
<g><path style="opacity:0.133" fill="#0f100f" d="M 107.5,221.5 C 108.833,222.167 108.833,222.167 107.5,221.5 Z"/></g>
<g><path style="opacity:0.133" fill="#0f100f" d="M 103.5,223.5 C 104.833,224.167 104.833,224.167 103.5,223.5 Z"/></g>
<g><path style="opacity:0.133" fill="#0f100f" d="M 105.5,223.5 C 106.833,224.167 106.833,224.167 105.5,223.5 Z"/></g>
<g><path style="opacity:0.133" fill="#0f100f" d="M 105.5,225.5 C 106.833,226.167 106.833,226.167 105.5,225.5 Z"/></g>
<g><path style="opacity:0.133" fill="#0f100f" d="M 107.5,225.5 C 108.833,226.167 108.833,226.167 107.5,225.5 Z"/></g>
<g><path style="opacity:0.133" fill="#0f100f" d="M 107.5,227.5 C 108.833,228.167 108.833,228.167 107.5,227.5 Z"/></g>
<g><path style="opacity:0.133" fill="#0f100f" d="M 109.5,227.5 C 110.833,228.167 110.833,228.167 109.5,227.5 Z"/></g>
<g><path style="opacity:0.133" fill="#0f100f" d="M 107.5,229.5 C 108.833,230.167 108.833,230.167 107.5,229.5 Z"/></g>
<g><path style="opacity:0.133" fill="#0f100f" d="M 111.5,231.5 C 112.833,232.167 112.833,232.167 111.5,231.5 Z"/></g>
<g><path style="opacity:0.133" fill="#0f100f" d="M 111.5,233.5 C 112.833,234.167 112.833,234.167 111.5,233.5 Z"/></g>
<g><path style="opacity:0.133" fill="#0f100f" d="M 111.5,235.5 C 112.833,236.167 112.833,236.167 111.5,235.5 Z"/></g>
<g><path style="opacity:0.133" fill="#0f100f" d="M 113.5,235.5 C 114.833,236.167 114.833,236.167 113.5,235.5 Z"/></g>
<g><path style="opacity:0.133" fill="#0f100f" d="M 115.5,235.5 C 116.833,236.167 116.833,236.167 115.5,235.5 Z"/></g>
<g><path style="opacity:0.133" fill="#0f100f" d="M 111.5,237.5 C 112.833,238.167 112.833,238.167 111.5,237.5 Z"/></g>
<g><path style="opacity:0.133" fill="#0f100f" d="M 113.5,237.5 C 114.833,238.167 114.833,238.167 113.5,237.5 Z"/></g>
<g><path style="opacity:0.133" fill="#0f100f" d="M 115.5,239.5 C 116.833,240.167 116.833,240.167 115.5,239.5 Z"/></g>
<g><path style="opacity:0.133" fill="#0f100f" d="M 117.5,239.5 C 118.833,240.167 118.833,240.167 117.5,239.5 Z"/></g>
<g><path style="opacity:0.133" fill="#0f100f" d="M 115.5,241.5 C 116.833,242.167 116.833,242.167 115.5,241.5 Z"/></g>
<g><path style="opacity:0.133" fill="#0f100f" d="M 117.5,243.5 C 118.833,244.167 118.833,244.167 117.5,243.5 Z"/></g>
<g><path style="opacity:0.133" fill="#0f100f" d="M 119.5,243.5 C 120.833,244.167 120.833,244.167 119.5,243.5 Z"/></g>
<g><path style="opacity:0.133" fill="#0f100f" d="M 115.5,245.5 C 116.833,246.167 116.833,246.167 115.5,245.5 Z"/></g>
<g><path style="opacity:0.133" fill="#0f100f" d="M 117.5,245.5 C 118.833,246.167 118.833,246.167 117.5,245.5 Z"/></g>
<g><path style="opacity:0.133" fill="#0f100f" d="M 119.5,247.5 C 120.833,248.167 120.833,248.167 119.5,247.5 Z"/></g>
<g><path style="opacity:0.133" fill="#0f100f" d="M 121.5,247.5 C 122.833,248.167 122.833,248.167 121.5,247.5 Z"/></g>
<g><path style="opacity:0.133" fill="#0f100f" d="M 123.5,247.5 C 124.833,248.167 124.833,248.167 123.5,247.5 Z"/></g>
<g><path style="opacity:0.133" fill="#0f100f" d="M 119.5,249.5 C 120.833,250.167 120.833,250.167 119.5,249.5 Z"/></g>
<g><path style="opacity:0.133" fill="#0f100f" d="M 123.5,251.5 C 124.833,252.167 124.833,252.167 123.5,251.5 Z"/></g>
<g><path style="opacity:0.133" fill="#0f100f" d="M 121.5,253.5 C 122.833,254.167 122.833,254.167 121.5,253.5 Z"/></g>
<g><path style="opacity:0.133" fill="#0f100f" d="M 123.5,253.5 C 124.833,254.167 124.833,254.167 123.5,253.5 Z"/></g>
<g><path style="opacity:0.133" fill="#0f100f" d="M 123.5,255.5 C 124.833,256.167 124.833,256.167 123.5,255.5 Z"/></g>
<g><path style="opacity:0.133" fill="#0f100f" d="M 125.5,255.5 C 126.833,256.167 126.833,256.167 125.5,255.5 Z"/></g>
<g><path style="opacity:0.133" fill="#0f100f" d="M 127.5,255.5 C 128.833,256.167 128.833,256.167 127.5,255.5 Z"/></g>
<g><path style="opacity:0.133" fill="#0f100f" d="M 123.5,257.5 C 124.833,258.167 124.833,258.167 123.5,257.5 Z"/></g>
<g><path style="opacity:0.133" fill="#0f100f" d="M 125.5,257.5 C 126.833,258.167 126.833,258.167 125.5,257.5 Z"/></g>
<g><path style="opacity:0.133" fill="#0c0d0c" d="M 75.5,263.5 C 76.8333,264.167 76.8333,264.167 75.5,263.5 Z"/></g>
<g><path style="opacity:0.133" fill="#0c0d0c" d="M 77.5,263.5 C 78.8333,264.167 78.8333,264.167 77.5,263.5 Z"/></g>
<g><path style="opacity:0.133" fill="#0c0d0c" d="M 75.5,265.5 C 76.8333,266.167 76.8333,266.167 75.5,265.5 Z"/></g>
<g><path style="opacity:0.133" fill="#0c0d0c" d="M 77.5,267.5 C 78.8333,268.167 78.8333,268.167 77.5,267.5 Z"/></g>
<g><path style="opacity:0.133" fill="#0c0d0c" d="M 79.5,267.5 C 80.8333,268.167 80.8333,268.167 79.5,267.5 Z"/></g>
<g><path style="opacity:0.133" fill="#0c0d0c" d="M 75.5,269.5 C 76.8333,270.167 76.8333,270.167 75.5,269.5 Z"/></g>
<g><path style="opacity:0.133" fill="#0c0d0c" d="M 77.5,269.5 C 78.8333,270.167 78.8333,270.167 77.5,269.5 Z"/></g>
<g><path style="opacity:0.133" fill="#0c0d0c" d="M 79.5,271.5 C 80.8333,272.167 80.8333,272.167 79.5,271.5 Z"/></g>
<g><path style="opacity:0.133" fill="#0c0d0c" d="M 81.5,271.5 C 82.8333,272.167 82.8333,272.167 81.5,271.5 Z"/></g>
<g><path style="opacity:0.133" fill="#0c0d0c" d="M 83.5,271.5 C 84.8333,272.167 84.8333,272.167 83.5,271.5 Z"/></g>
<g><path style="opacity:0.133" fill="#0c0d0c" d="M 79.5,273.5 C 80.8333,274.167 80.8333,274.167 79.5,273.5 Z"/></g>
<g><path style="opacity:0.133" fill="#0c0d0c" d="M 83.5,275.5 C 84.8333,276.167 84.8333,276.167 83.5,275.5 Z"/></g>
<g><path style="opacity:0.133" fill="#0c0d0c" d="M 81.5,277.5 C 82.8333,278.167 82.8333,278.167 81.5,277.5 Z"/></g>
<g><path style="opacity:0.133" fill="#0c0d0c" d="M 83.5,277.5 C 84.8333,278.167 84.8333,278.167 83.5,277.5 Z"/></g>
<g><path style="opacity:0.133" fill="#0c0d0c" d="M 85.5,279.5 C 86.8333,280.167 86.8333,280.167 85.5,279.5 Z"/></g>
<g><path style="opacity:0.133" fill="#0c0d0c" d="M 87.5,279.5 C 88.8333,280.167 88.8333,280.167 87.5,279.5 Z"/></g>
<g><path style="opacity:0.133" fill="#0c0d0c" d="M 83.5,281.5 C 84.8333,282.167 84.8333,282.167 83.5,281.5 Z"/></g>
<g><path style="opacity:0.133" fill="#0c0d0c" d="M 85.5,281.5 C 86.8333,282.167 86.8333,282.167 85.5,281.5 Z"/></g>
<g><path style="opacity:0.133" fill="#0c0d0c" d="M 87.5,283.5 C 88.8333,284.167 88.8333,284.167 87.5,283.5 Z"/></g>
<g><path style="opacity:0.133" fill="#0c0d0c" d="M 87.5,285.5 C 88.8333,286.167 88.8333,286.167 87.5,285.5 Z"/></g>
<g><path style="opacity:0.133" fill="#0c0d0c" d="M 91.5,287.5 C 92.8333,288.167 92.8333,288.167 91.5,287.5 Z"/></g>
<g><path style="opacity:0.133" fill="#0c0d0c" d="M 89.5,289.5 C 90.8333,290.167 90.8333,290.167 89.5,289.5 Z"/></g>
<g><path style="opacity:0.133" fill="#0c0d0c" d="M 91.5,289.5 C 92.8333,290.167 92.8333,290.167 91.5,289.5 Z"/></g>
<g><path style="opacity:0.133" fill="#0c0d0c" d="M 91.5,291.5 C 92.8333,292.167 92.8333,292.167 91.5,291.5 Z"/></g>
<g><path style="opacity:0.133" fill="#0c0d0c" d="M 93.5,291.5 C 94.8333,292.167 94.8333,292.167 93.5,291.5 Z"/></g>
<g><path style="opacity:0.133" fill="#0c0d0c" d="M 91.5,293.5 C 92.8333,294.167 92.8333,294.167 91.5,293.5 Z"/></g>
<g><path style="opacity:0.133" fill="#0c0d0c" d="M 95.5,295.5 C 96.8333,296.167 96.8333,296.167 95.5,295.5 Z"/></g>
<g><path style="opacity:0.133" fill="#0c0d0c" d="M 95.5,297.5 C 96.8333,298.167 96.8333,298.167 95.5,297.5 Z"/></g>
<g><path style="opacity:0.133" fill="#0c0d0c" d="M 97.5,299.5 C 98.8333,300.167 98.8333,300.167 97.5,299.5 Z"/></g>
<g><path style="opacity:0.133" fill="#0c0d0c" d="M 99.5,299.5 C 100.833,300.167 100.833,300.167 99.5,299.5 Z"/></g>
<g><path style="opacity:0.133" fill="#0c0d0c" d="M 95.5,301.5 C 96.8333,302.167 96.8333,302.167 95.5,301.5 Z"/></g>
<g><path style="opacity:0.133" fill="#0c0d0c" d="M 97.5,301.5 C 98.8333,302.167 98.8333,302.167 97.5,301.5 Z"/></g>
<g><path style="opacity:0.133" fill="#0c0d0c" d="M 99.5,301.5 C 100.833,302.167 100.833,302.167 99.5,301.5 Z"/></g>
<g><path style="opacity:0.133" fill="#0c0d0c" d="M 99.5,303.5 C 100.833,304.167 100.833,304.167 99.5,303.5 Z"/></g>
<g><path style="opacity:0.133" fill="#0c0d0c" d="M 101.5,303.5 C 102.833,304.167 102.833,304.167 101.5,303.5 Z"/></g>
<g><path style="opacity:0.133" fill="#0c0d0c" d="M 99.5,305.5 C 100.833,306.167 100.833,306.167 99.5,305.5 Z"/></g>
<g><path style="opacity:0.133" fill="#0c0d0c" d="M 101.5,305.5 C 102.833,306.167 102.833,306.167 101.5,305.5 Z"/></g>
<g><path style="opacity:0.133" fill="#0c0d0c" d="M 103.5,307.5 C 104.833,308.167 104.833,308.167 103.5,307.5 Z"/></g>
<g><path style="opacity:0.133" fill="#0c0d0c" d="M 101.5,309.5 C 102.833,310.167 102.833,310.167 101.5,309.5 Z"/></g>
<g><path style="opacity:0.133" fill="#0c0d0c" d="M 103.5,309.5 C 104.833,310.167 104.833,310.167 103.5,309.5 Z"/></g>
<g><path style="opacity:0.133" fill="#0c0d0c" d="M 105.5,311.5 C 106.833,312.167 106.833,312.167 105.5,311.5 Z"/></g>
<g><path style="opacity:0.133" fill="#0c0d0c" d="M 107.5,311.5 C 108.833,312.167 108.833,312.167 107.5,311.5 Z"/></g>
<g><path style="opacity:0.133" fill="#0c0d0c" d="M 103.5,313.5 C 104.833,314.167 104.833,314.167 103.5,313.5 Z"/></g>
<g><path style="opacity:0.133" fill="#0c0d0c" d="M 105.5,313.5 C 106.833,314.167 106.833,314.167 105.5,313.5 Z"/></g>
<g><path style="opacity:0.133" fill="#0c0d0c" d="M 107.5,313.5 C 108.833,314.167 108.833,314.167 107.5,313.5 Z"/></g>
<g><path style="opacity:0.133" fill="#0c0d0c" d="M 107.5,315.5 C 108.833,316.167 108.833,316.167 107.5,315.5 Z"/></g>
<g><path style="opacity:0.133" fill="#0c0d0c" d="M 109.5,315.5 C 110.833,316.167 110.833,316.167 109.5,315.5 Z"/></g>
<g><path style="opacity:0.133" fill="#0c0d0c" d="M 107.5,317.5 C 108.833,318.167 108.833,318.167 107.5,317.5 Z"/></g>
<g><path style="opacity:0.133" fill="#0c0d0c" d="M 111.5,319.5 C 112.833,320.167 112.833,320.167 111.5,319.5 Z"/></g>
<g><path style="opacity:0.133" fill="#0c0d0c" d="M 111.5,321.5 C 112.833,322.167 112.833,322.167 111.5,321.5 Z"/></g>
<g><path style="opacity:0.133" fill="#0c0d0c" d="M 113.5,323.5 C 114.833,324.167 114.833,324.167 113.5,323.5 Z"/></g>
<g><path style="opacity:0.133" fill="#0c0d0c" d="M 115.5,323.5 C 116.833,324.167 116.833,324.167 115.5,323.5 Z"/></g>
<g><path style="opacity:0.133" fill="#0c0d0c" d="M 111.5,325.5 C 112.833,326.167 112.833,326.167 111.5,325.5 Z"/></g>
<g><path style="opacity:0.133" fill="#0c0d0c" d="M 113.5,325.5 C 114.833,326.167 114.833,326.167 113.5,325.5 Z"/></g>
<g><path style="opacity:0.133" fill="#0c0d0c" d="M 115.5,325.5 C 116.833,326.167 116.833,326.167 115.5,325.5 Z"/></g>
<g><path style="opacity:0.133" fill="#0c0d0c" d="M 115.5,327.5 C 116.833,328.167 116.833,328.167 115.5,327.5 Z"/></g>
<g><path style="opacity:0.133" fill="#0c0d0c" d="M 117.5,327.5 C 118.833,328.167 118.833,328.167 117.5,327.5 Z"/></g>
<g><path style="opacity:0.133" fill="#0c0d0c" d="M 119.5,327.5 C 120.833,328.167 120.833,328.167 119.5,327.5 Z"/></g>
<g><path style="opacity:0.133" fill="#0c0d0c" d="M 115.5,329.5 C 116.833,330.167 116.833,330.167 115.5,329.5 Z"/></g>
<g><path style="opacity:0.133" fill="#0c0d0c" d="M 117.5,329.5 C 118.833,330.167 118.833,330.167 117.5,329.5 Z"/></g>
<g><path style="opacity:0.133" fill="#0c0d0c" d="M 119.5,331.5 C 120.833,332.167 120.833,332.167 119.5,331.5 Z"/></g>
<g><path style="opacity:0.133" fill="#0c0d0c" d="M 119.5,333.5 C 120.833,334.167 120.833,334.167 119.5,333.5 Z"/></g>
<g><path style="opacity:0.133" fill="#0c0d0c" d="M 123.5,335.5 C 124.833,336.167 124.833,336.167 123.5,335.5 Z"/></g>
<g><path style="opacity:0.133" fill="#0c0d0c" d="M 121.5,337.5 C 122.833,338.167 122.833,338.167 121.5,337.5 Z"/></g>
<g><path style="opacity:0.133" fill="#0c0d0c" d="M 123.5,337.5 C 124.833,338.167 124.833,338.167 123.5,337.5 Z"/></g>
<g><path style="opacity:0.133" fill="#0c0d0c" d="M 123.5,339.5 C 124.833,340.167 124.833,340.167 123.5,339.5 Z"/></g>
<g><path style="opacity:0.133" fill="#0c0d0c" d="M 125.5,339.5 C 126.833,340.167 126.833,340.167 125.5,339.5 Z"/></g>
<g><path style="opacity:0.133" fill="#0c0d0c" d="M 127.5,339.5 C 128.833,340.167 128.833,340.167 127.5,339.5 Z"/></g>
<g><path style="opacity:0.133" fill="#0c0d0c" d="M 123.5,341.5 C 124.833,342.167 124.833,342.167 123.5,341.5 Z"/></g>
<g><path style="opacity:0.133" fill="#0c0d0c" d="M 125.5,341.5 C 126.833,342.167 126.833,342.167 125.5,341.5 Z"/></g>
<g><path style="opacity:0.133" fill="#0c0d0c" d="M 127.5,343.5 C 128.833,344.167 128.833,344.167 127.5,343.5 Z"/></g>
<g><path style="opacity:0.133" fill="#0c0d0c" d="M 129.5,343.5 C 130.833,344.167 130.833,344.167 129.5,343.5 Z"/></g>
<g><path style="opacity:0.133" fill="#0c0d0c" d="M 131.5,343.5 C 132.833,344.167 132.833,344.167 131.5,343.5 Z"/></g>
<g><path style="opacity:0.133" fill="#0c0d0c" d="M 127.5,345.5 C 128.833,346.167 128.833,346.167 127.5,345.5 Z"/></g>
<g><path style="opacity:0.133" fill="#0c0d0c" d="M 129.5,345.5 C 130.833,346.167 130.833,346.167 129.5,345.5 Z"/></g>
<g><path style="opacity:0.133" fill="#0c0d0c" d="M 131.5,347.5 C 132.833,348.167 132.833,348.167 131.5,347.5 Z"/></g>
<g><path style="opacity:0.133" fill="#0c0d0c" d="M 129.5,349.5 C 130.833,350.167 130.833,350.167 129.5,349.5 Z"/></g>
<g><path style="opacity:0.133" fill="#0c0d0c" d="M 131.5,349.5 C 132.833,350.167 132.833,350.167 131.5,349.5 Z"/></g>
<g><path style="opacity:0.133" fill="#0c0d0c" d="M 135.5,351.5 C 136.833,352.167 136.833,352.167 135.5,351.5 Z"/></g>
<g><path style="opacity:0.133" fill="#0c0d0c" d="M 133.5,353.5 C 134.833,354.167 134.833,354.167 133.5,353.5 Z"/></g>
<g><path style="opacity:0.133" fill="#0c0d0c" d="M 135.5,353.5 C 136.833,354.167 136.833,354.167 135.5,353.5 Z"/></g>
<g><path style="opacity:0.133" fill="#0c0d0c" d="M 138.5,356.5 C 137.833,355.167 137.833,355.167 138.5,356.5 Z"/></g>
<g><path style="opacity:0.133" fill="#0c0d0c" d="M 140.5,356.5 C 139.833,355.167 139.833,355.167 140.5,356.5 Z"/></g>
</svg>
